#Comment line ignore any data following # character 
#Hierarchical Translation and Rotation (.htr) file 
[Header]	
#Header keywords are followed by a single value 
FileType HTR		#Single word string
DataType HTRS		#Translation followed by rotation and scale data
FileVersion 1		#integer
NumSegments 84		#integer
NumFrames 2		#integer
DataFrameRate 30		#integer, data frame rate in this file
EulerRotationOrder ZYX
CalibrationUnits mm
RotationUnits Degrees
GlobalAxisofGravity Y
BoneLengthAxis Y
ScaleFactor 1.00
[SegmentNames&Hierarchy]
#CHILD	PARENT
MASTER GLOBAL
root MASTER
chest root
L_mid_tent01 root
R_mid_tent01 root
spine01 root
Bip01_Neck chest
L_humerus chest
R_humerus chest
weapon_bone chest
Bip01_Head Bip01_Neck
eye_left_bone Bip01_Head
eye_right_bone Bip01_Head
L_forearm L_humerus
L_front_hand L_forearm
L_weapon_bone L_forearm
L_front_hand01_01 L_front_hand
L_front_hand02_01 L_front_hand
L_front_hand03_01 L_front_hand
L_front_hand01_02 L_front_hand01_01
L_front_hand02_02 L_front_hand02_01
L_front_hand03_02 L_front_hand03_01
R_forearm R_humerus
R_front_hand R_forearm
R_weapon_bone R_forearm
R_front_hand01_01 R_front_hand
R_front_hand02_01 R_front_hand
R_front_hand03_01 R_front_hand
R_front_hand01_02 R_front_hand01_01
R_front_hand02_02 R_front_hand02_01
R_front_hand03_02 R_front_hand03_01
null_rope01_connect L_mid_tent01
Rope1_Seg01 null_rope01_connect
Rope1_Seg02 Rope1_Seg01
Rope1_Seg03 Rope1_Seg02
Rope1_Seg04 Rope1_Seg03
Rope1_Seg05 Rope1_Seg04
Rope1_Seg06 Rope1_Seg05
Rope1_Seg07 Rope1_Seg06
Rope1_Seg09 Rope1_Seg07
L_mid_hand01 Rope1_Seg09
L_mid_hand02 Rope1_Seg09
L_mid_hand03 Rope1_Seg09
null_rope02_connect R_mid_tent01
Rope2_Seg01 null_rope02_connect
Rope2_Seg02 Rope2_Seg01
Rope2_Seg03 Rope2_Seg02
Rope2_Seg04 Rope2_Seg03
Rope2_Seg05 Rope2_Seg04
Rope2_Seg06 Rope2_Seg05
Rope2_Seg07 Rope2_Seg06
Rope2_Seg09 Rope2_Seg07
R_mid_hand01 Rope2_Seg09
R_mid_hand02 Rope2_Seg09
R_mid_hand03 Rope2_Seg09
spine02 spine01
spine03 spine02
pelvis spine03
null_rope03_connect pelvis
null_rope04_connect pelvis
Rope3_Seg01 null_rope03_connect
Rope3_Seg02 Rope3_Seg01
Rope3_Seg03 Rope3_Seg02
Rope3_Seg04 Rope3_Seg03
Rope3_Seg05 Rope3_Seg04
Rope3_Seg06 Rope3_Seg05
Rope3_Seg07 Rope3_Seg06
Rope3_Seg08 Rope3_Seg07
Rope3_Seg09 Rope3_Seg08
R_rear_hand01 Rope3_Seg09
R_rear_hand02 Rope3_Seg09
R_rear_hand03 Rope3_Seg09
Rope4_Seg01 null_rope04_connect
Rope4_Seg02 Rope4_Seg01
Rope4_Seg03 Rope4_Seg02
Rope4_Seg04 Rope4_Seg03
Rope4_Seg05 Rope4_Seg04
Rope4_Seg06 Rope4_Seg05
Rope4_Seg07 Rope4_Seg06
Rope4_Seg08 Rope4_Seg07
Rope4_Seg09 Rope4_Seg08
L_rear_hand01 Rope4_Seg09
L_rear_hand02 Rope4_Seg09
L_rear_hand03 Rope4_Seg09
[BasePosition]
#SegmentName Tx, Ty, Tz, Rx, Ry, Rz, BoneLength
MASTER 0.000000 0.000000 0.000000 -90.000000 0.000000 0.000000 10.000000 
root 0.000000 0.000000 0.000000 0.000000 0.000000 0.000000 10.000000 
chest 0.000000 0.000000 0.000000 0.000000 0.000000 0.000000 10.000000 
L_mid_tent01 0.000000 0.000000 0.000000 0.000000 0.000000 0.000000 10.000000 
R_mid_tent01 0.000000 0.000000 0.000000 0.000000 0.000000 0.000000 10.000000 
spine01 0.000000 0.000000 0.000000 0.000000 0.000000 0.000000 10.000000 
Bip01_Neck 0.000000 0.000000 0.000000 0.000000 0.000000 0.000000 10.000000 
L_humerus 0.000000 0.000000 0.000000 0.000000 0.000000 0.000000 10.000000 
R_humerus 0.000000 0.000000 0.000000 0.000000 0.000000 0.000000 10.000000 
weapon_bone 0.000000 0.000000 0.000000 0.000000 0.000000 0.000000 10.000000 
Bip01_Head 0.000000 0.000000 0.000000 0.000000 0.000000 0.000000 10.000000 
eye_left_bone 0.000000 0.000000 0.000000 0.000000 0.000000 0.000000 10.000000 
eye_right_bone 0.000000 0.000000 0.000000 0.000000 0.000000 0.000000 10.000000 
L_forearm 0.000000 0.000000 0.000000 0.000000 0.000000 0.000000 10.000000 
L_front_hand 0.000000 0.000000 0.000000 0.000000 0.000000 0.000000 10.000000 
L_weapon_bone 0.000000 0.000000 0.000000 0.000000 0.000000 0.000000 10.000000 
L_front_hand01_01 0.000000 0.000000 0.000000 0.000000 0.000000 0.000000 10.000000 
L_front_hand02_01 0.000000 0.000000 0.000000 0.000000 0.000000 0.000000 10.000000 
L_front_hand03_01 0.000000 0.000000 0.000000 0.000000 0.000000 0.000000 10.000000 
L_front_hand01_02 0.000000 0.000000 0.000000 0.000000 0.000000 0.000000 10.000000 
L_front_hand02_02 0.000000 0.000000 0.000000 0.000000 0.000000 0.000000 10.000000 
L_front_hand03_02 0.000000 0.000000 0.000000 0.000000 0.000000 0.000000 10.000000 
R_forearm 0.000000 0.000000 0.000000 0.000000 0.000000 0.000000 10.000000 
R_front_hand 0.000000 0.000000 0.000000 0.000000 0.000000 0.000000 10.000000 
R_weapon_bone 0.000000 0.000000 0.000000 0.000000 0.000000 0.000000 10.000000 
R_front_hand01_01 0.000000 0.000000 0.000000 0.000000 0.000000 0.000000 10.000000 
R_front_hand02_01 0.000000 0.000000 0.000000 0.000000 0.000000 0.000000 10.000000 
R_front_hand03_01 0.000000 0.000000 0.000000 0.000000 0.000000 0.000000 10.000000 
R_front_hand01_02 0.000000 0.000000 0.000000 0.000000 0.000000 0.000000 10.000000 
R_front_hand02_02 0.000000 0.000000 0.000000 0.000000 0.000000 0.000000 10.000000 
R_front_hand03_02 0.000000 0.000000 0.000000 0.000000 0.000000 0.000000 10.000000 
null_rope01_connect 0.000000 0.000000 0.000000 0.000000 0.000000 0.000000 10.000000 
Rope1_Seg01 0.000000 0.000000 0.000000 0.000000 0.000000 0.000000 10.000000 
Rope1_Seg02 0.000000 0.000000 0.000000 0.000000 0.000000 0.000000 10.000000 
Rope1_Seg03 0.000000 0.000000 0.000000 0.000000 0.000000 0.000000 10.000000 
Rope1_Seg04 0.000000 0.000000 0.000000 0.000000 0.000000 0.000000 10.000000 
Rope1_Seg05 0.000000 0.000000 0.000000 0.000000 0.000000 0.000000 10.000000 
Rope1_Seg06 0.000000 0.000000 0.000000 0.000000 0.000000 0.000000 10.000000 
Rope1_Seg07 0.000000 0.000000 0.000000 0.000000 0.000000 0.000000 10.000000 
Rope1_Seg09 0.000000 0.000000 0.000000 0.000000 0.000000 0.000000 10.000000 
L_mid_hand01 0.000000 0.000000 0.000000 0.000000 0.000000 0.000000 10.000000 
L_mid_hand02 0.000000 0.000000 0.000000 0.000000 0.000000 0.000000 10.000000 
L_mid_hand03 0.000000 0.000000 0.000000 0.000000 0.000000 0.000000 10.000000 
null_rope02_connect 0.000000 0.000000 0.000000 0.000000 0.000000 0.000000 10.000000 
Rope2_Seg01 0.000000 0.000000 0.000000 0.000000 0.000000 0.000000 10.000000 
Rope2_Seg02 0.000000 0.000000 0.000000 0.000000 0.000000 0.000000 10.000000 
Rope2_Seg03 0.000000 0.000000 0.000000 0.000000 0.000000 0.000000 10.000000 
Rope2_Seg04 0.000000 0.000000 0.000000 0.000000 0.000000 0.000000 10.000000 
Rope2_Seg05 0.000000 0.000000 0.000000 0.000000 0.000000 0.000000 10.000000 
Rope2_Seg06 0.000000 0.000000 0.000000 0.000000 0.000000 0.000000 10.000000 
Rope2_Seg07 0.000000 0.000000 0.000000 0.000000 0.000000 0.000000 10.000000 
Rope2_Seg09 0.000000 0.000000 0.000000 0.000000 0.000000 0.000000 10.000000 
R_mid_hand01 0.000000 0.000000 0.000000 0.000000 0.000000 0.000000 10.000000 
R_mid_hand02 0.000000 0.000000 0.000000 0.000000 0.000000 0.000000 10.000000 
R_mid_hand03 0.000000 0.000000 0.000000 0.000000 0.000000 0.000000 10.000000 
spine02 0.000000 0.000000 0.000000 0.000000 0.000000 0.000000 10.000000 
spine03 0.000000 0.000000 0.000000 0.000000 0.000000 0.000000 10.000000 
pelvis 0.000000 0.000000 0.000000 0.000000 0.000000 0.000000 10.000000 
null_rope03_connect 0.000000 0.000000 0.000000 0.000000 0.000000 0.000000 10.000000 
null_rope04_connect 0.000000 0.000000 0.000000 0.000000 0.000000 0.000000 10.000000 
Rope3_Seg01 0.000000 0.000000 0.000000 0.000000 0.000000 0.000000 10.000000 
Rope3_Seg02 0.000000 0.000000 0.000000 0.000000 0.000000 0.000000 10.000000 
Rope3_Seg03 0.000000 0.000000 0.000000 0.000000 0.000000 0.000000 10.000000 
Rope3_Seg04 0.000000 0.000000 0.000000 0.000000 0.000000 0.000000 10.000000 
Rope3_Seg05 0.000000 0.000000 0.000000 0.000000 0.000000 0.000000 10.000000 
Rope3_Seg06 0.000000 0.000000 0.000000 0.000000 0.000000 0.000000 10.000000 
Rope3_Seg07 0.000000 0.000000 0.000000 0.000000 0.000000 0.000000 10.000000 
Rope3_Seg08 0.000000 0.000000 0.000000 0.000000 0.000000 0.000000 10.000000 
Rope3_Seg09 0.000000 0.000000 0.000000 0.000000 0.000000 0.000000 10.000000 
R_rear_hand01 0.000000 0.000000 0.000000 0.000000 0.000000 0.000000 10.000000 
R_rear_hand02 0.000000 0.000000 0.000000 0.000000 0.000000 0.000000 10.000000 
R_rear_hand03 0.000000 0.000000 0.000000 0.000000 0.000000 0.000000 10.000000 
Rope4_Seg01 0.000000 0.000000 0.000000 0.000000 0.000000 0.000000 10.000000 
Rope4_Seg02 0.000000 0.000000 0.000000 0.000000 0.000000 0.000000 10.000000 
Rope4_Seg03 0.000000 0.000000 0.000000 0.000000 0.000000 0.000000 10.000000 
Rope4_Seg04 0.000000 0.000000 0.000000 0.000000 0.000000 0.000000 10.000000 
Rope4_Seg05 0.000000 0.000000 0.000000 0.000000 0.000000 0.000000 10.000000 
Rope4_Seg06 0.000000 0.000000 0.000000 0.000000 0.000000 0.000000 10.000000 
Rope4_Seg07 0.000000 0.000000 0.000000 0.000000 0.000000 0.000000 10.000000 
Rope4_Seg08 0.000000 0.000000 0.000000 0.000000 0.000000 0.000000 10.000000 
Rope4_Seg09 0.000000 0.000000 0.000000 0.000000 0.000000 0.000000 10.000000 
L_rear_hand01 0.000000 0.000000 0.000000 0.000000 0.000000 0.000000 10.000000 
L_rear_hand02 0.000000 0.000000 0.000000 0.000000 0.000000 0.000000 10.000000 
L_rear_hand03 0.000000 0.000000 0.000000 0.000000 0.000000 0.000000 10.000000 
#Beginning of Data. Separated by tabs
#Fr	Tx	Ty	Tz	Rx	Ry	Rz	SF
[MASTER]
19 0.000000 0.000000 0.000000 0.001660 0.001660 0.001660 0.000000
20 0.000000 0.000000 0.000000 0.001660 0.001660 0.001660 0.000000
[root]
19 -16.502338 85.772308 1617.055786 -81.094025 0.992502 -108.235878 1619.412964
20 -16.502338 85.772308 1617.055786 -80.033638 1.083206 -108.712776 1619.412964
[chest]
19 -84.512650 -34.090519 0.000000 -2.102793 -0.013842 167.456390 91.129311
20 -84.512650 -34.090519 0.000000 -2.106485 -0.013562 167.493698 91.129311
[L_mid_tent01]
19 27.299099 22.179182 -249.918701 69.228531 15.738131 168.173828 252.381683
20 27.299101 22.179178 -249.918701 69.268112 18.272470 167.724747 252.381683
[R_mid_tent01]
19 23.228794 24.509907 226.238495 160.721664 5.110028 41.454903 228.744751
20 23.228794 24.509907 226.238495 161.820007 3.540171 44.281521 228.744751
[spine01]
19 -0.361383 -0.195265 0.000000 -0.000001 -0.000007 22.052340 0.410763
20 -0.361383 -0.195265 0.000000 -0.000001 -0.000007 22.052340 0.410763
[Bip01_Neck]
19 165.484543 71.581718 0.000119 175.896118 1.177290 24.871183 180.302734
20 165.484543 71.581718 0.000119 175.896118 1.177290 24.871183 180.302734
[L_humerus]
19 -13.983130 -135.272980 -120.471481 -102.560532 5.861497 5.603377 181.680161
20 -13.983130 -135.272980 -120.471481 -102.959900 8.939516 4.781675 181.680161
[R_humerus]
19 -13.983309 -135.273102 125.287651 -155.530533 -46.994621 -110.647072 184.909012
20 -13.983309 -135.273102 125.287651 -161.108597 -49.908401 -103.425980 184.909012
[weapon_bone]
19 235.964890 -300.705902 0.000000 0.000000 -89.951546 -128.212341 382.234833
20 235.964890 -300.705902 0.000000 0.000000 -89.951546 -128.212341 382.234833
[Bip01_Head]
19 163.411118 200.655045 11.719663 1.290747 -1.624504 -33.467953 259.042450
20 165.283142 198.331436 11.401135 1.356824 -1.351746 -34.701248 258.425720
[eye_left_bone]
19 34.034767 159.026382 -73.459633 -116.662880 -87.200821 17.201252 178.449081
20 34.078213 158.980515 -73.295364 -117.849960 -87.331413 18.391214 178.348923
[eye_right_bone]
19 41.827618 160.169342 55.365868 63.287201 -87.200264 17.250635 174.554138
20 41.547852 160.091904 55.560570 62.307514 -87.334198 18.232468 174.478134
[L_forearm]
19 322.776093 0.000000 -0.000119 0.001614 0.001705 -3.149159 322.776093
20 322.776093 0.000000 -0.000119 0.001577 0.001738 -5.554543 322.776093
[L_front_hand]
19 241.149185 -0.042021 -3.300071 165.375854 -2.106426 -13.138883 241.171753
20 241.149185 -0.042021 -3.300071 118.441002 -2.107429 -13.140524 241.171753
[L_weapon_bone]
19 156.183838 0.000000 0.000000 0.000014 0.000007 0.000001 156.183838
20 156.183838 0.000000 0.000000 0.000014 0.000007 0.000001 156.183838
[L_front_hand01_01]
19 86.095154 20.947098 -0.655860 -0.366594 -0.477154 75.385574 88.609184
20 86.095154 20.947098 -0.655860 -0.366594 -0.477154 75.385574 88.609184
[L_front_hand02_01]
19 86.935165 -11.437475 24.513514 154.399796 -59.883835 -61.369587 91.046425
20 86.935165 -11.437475 24.513514 154.399796 -59.883835 -61.369587 91.046425
[L_front_hand03_01]
19 86.637497 -14.123976 -20.424902 -153.913849 58.118122 -62.702866 90.126129
20 86.637497 -14.123976 -20.424902 -153.913849 58.118122 -62.702866 90.126129
[L_front_hand01_02]
19 71.020905 -0.000179 0.000030 0.000334 -0.002323 -106.379684 71.020905
20 71.020905 -0.000179 0.000030 0.000334 -0.002323 -106.379684 71.020905
[L_front_hand02_02]
19 71.020927 -0.000119 0.000060 0.000334 -0.002323 -106.379684 71.020927
20 71.020927 -0.000119 0.000060 0.000334 -0.002323 -106.379684 71.020927
[L_front_hand03_02]
19 71.020905 -0.000060 0.000060 0.000334 -0.002323 -106.379684 71.020905
20 71.020905 -0.000060 0.000060 0.000334 -0.002323 -106.379684 71.020905
[R_forearm]
19 322.776428 -0.000060 0.000030 0.200149 -0.074408 -70.598450 322.776428
20 322.776428 -0.000060 0.000030 0.199718 -0.075558 -69.939278 322.776428
[R_front_hand]
19 238.847015 -0.006795 2.210259 -2.635298 -10.645461 -26.312506 238.857239
20 238.847015 -0.006795 2.210259 -2.635298 -10.645461 -26.312506 238.857239
[R_weapon_bone]
19 155.664093 0.002503 -0.000030 0.003487 0.001180 -90.988930 155.664078
20 155.664093 0.002503 -0.000030 0.003487 0.001180 -90.988930 155.664078
[R_front_hand01_01]
19 87.624611 14.231146 22.918642 -154.633499 -59.950619 61.746044 91.683487
20 87.624611 14.231146 22.918642 -154.633499 -59.950619 61.746044 91.683487
[R_front_hand02_01]
19 89.356956 14.367283 -19.491137 154.602661 58.302849 63.744389 92.579636
20 89.356956 14.367283 -19.491137 154.602661 58.302849 63.744389 92.579636
[R_front_hand03_01]
19 87.286232 -22.307278 -0.143439 0.162155 -0.423168 -75.767921 90.091743
20 87.286232 -22.307278 -0.143439 0.162155 -0.423168 -75.767921 90.091743
[R_front_hand01_02]
19 71.020905 0.000060 0.000119 0.002323 -0.000334 106.381714 71.020905
20 71.020905 0.000060 0.000119 0.002323 -0.000334 106.381714 71.020905
[R_front_hand02_02]
19 71.020844 -0.000030 -0.000119 0.002323 -0.000334 106.381714 71.020836
20 71.020844 -0.000030 -0.000119 0.002323 -0.000334 106.381714 71.020836
[R_front_hand03_02]
19 71.020905 0.000000 0.000030 0.002323 -0.000334 106.381714 71.020905
20 71.020905 0.000000 0.000030 0.002323 -0.000334 106.381714 71.020905
[null_rope01_connect]
19 328.732483 0.000000 -0.000238 -165.291534 -25.591299 85.513786 328.732483
20 328.732483 0.000000 -0.000238 -165.240555 -26.322369 87.461426 328.732483
[Rope1_Seg01]
19 0.000000 0.000000 0.000000 84.572029 25.215521 94.091980 0.000000
20 0.000000 0.000000 0.000000 83.944588 25.250334 93.379593 0.000000
[Rope1_Seg02]
19 139.999863 -0.000179 0.000000 1.946402 -4.054920 9.138817 139.999863
20 139.999863 -0.000179 0.000000 1.845199 -4.143292 8.992133 139.999863
[Rope1_Seg03]
19 139.999924 0.000060 -0.000060 3.957784 -3.945500 10.362434 139.999924
20 139.999924 0.000060 -0.000060 3.747480 -4.083719 10.180991 139.999924
[Rope1_Seg04]
19 139.999924 -0.000060 -0.000119 13.100385 -3.750790 15.269641 139.999924
20 139.999924 -0.000060 -0.000119 12.829458 -4.097517 15.247026 139.999924
[Rope1_Seg05]
19 139.999832 0.000119 -0.000060 -2.075811 -1.368524 0.001724 139.999832
20 139.999832 0.000119 -0.000060 -1.879001 -1.292720 0.097058 139.999832
[Rope1_Seg06]
19 139.999954 0.000119 -0.000060 -11.184610 -1.258615 -8.984077 139.999954
20 139.999954 0.000119 -0.000060 -11.147649 -0.962692 -9.147455 139.999954
[Rope1_Seg07]
19 139.999985 0.000060 0.000000 -3.180546 0.013161 -3.328902 139.999985
20 139.999985 0.000060 0.000000 -3.155200 0.154338 -3.441664 139.999985
[Rope1_Seg09]
19 121.602913 0.000119 -0.000089 115.532799 -1.393864 0.834122 121.602913
20 121.602913 0.000119 -0.000089 172.068649 -1.377211 0.825970 121.602913
[L_mid_hand01]
19 103.859421 1.038730 8.195221 109.051628 -40.575325 -13.193502 104.187431
20 103.859421 1.038730 8.195221 110.960983 -46.127617 -15.968385 104.187431
[L_mid_hand02]
19 105.572853 -4.139662 -10.864139 -146.698273 31.460838 -37.873600 106.211075
20 105.572853 -4.139662 -10.864139 -149.965897 34.562794 -43.864349 106.211075
[L_mid_hand03]
19 104.641464 17.579376 -3.913581 -14.272455 12.313718 43.866245 106.179977
20 104.641464 17.579376 -3.913581 -12.948408 13.703238 49.759277 106.179977
[null_rope02_connect]
19 328.732849 0.000179 -0.000119 45.724480 77.492592 179.729691 328.732849
20 328.732849 0.000179 -0.000119 57.540245 80.031662 -166.547577 328.732849
[Rope2_Seg01]
19 0.000095 0.000153 0.000038 96.503448 10.423533 -79.023148 0.000184
20 0.000095 0.000153 0.000040 91.207787 5.676642 -80.539780 0.000184
[Rope2_Seg02]
19 139.999741 -0.000060 -0.000119 14.028511 11.030620 -12.204349 139.999756
20 139.999741 -0.000060 -0.000119 10.735676 11.663091 -11.772924 139.999756
[Rope2_Seg03]
19 140.000107 0.000030 0.000000 21.621147 5.370102 -8.686505 140.000107
20 140.000107 0.000030 0.000000 18.073713 6.753465 -8.762087 140.000107
[Rope2_Seg04]
19 139.999802 0.000000 -0.000060 23.849850 0.910840 -6.001242 139.999802
20 139.999802 0.000000 -0.000060 21.614771 2.077615 -5.904609 139.999802
[Rope2_Seg05]
19 139.999985 -0.000060 0.000119 54.822731 -8.493849 -16.786856 139.999985
20 139.999985 -0.000060 0.000119 56.555832 -4.660695 -14.909567 139.999985
[Rope2_Seg06]
19 139.999893 -0.000030 -0.000119 23.796209 -49.231678 -9.460070 139.999893
20 139.999893 -0.000030 -0.000119 32.709461 -46.116894 -15.762142 139.999893
[Rope2_Seg07]
19 139.999893 0.000060 -0.000060 -0.450587 -25.395224 5.179671 139.999893
20 139.999893 0.000060 -0.000060 -0.126254 -29.168169 5.934518 139.999893
[Rope2_Seg09]
19 121.338966 0.000089 -0.000060 33.793236 -1.359788 -0.847141 121.338966
20 121.338966 0.000089 -0.000060 33.793236 -1.359788 -0.847141 121.338966
[R_mid_hand01]
19 104.680779 11.144459 -10.335981 -32.941483 36.319778 45.161243 105.778534
20 104.680779 11.144459 -10.335981 -36.072029 33.220169 39.674145 105.778534
[R_mid_hand02]
19 104.070427 2.443552 8.231699 67.501617 -49.586674 18.039694 104.424065
20 104.070427 2.443552 8.231699 69.651680 -44.494339 15.107097 104.424065
[R_mid_hand03]
19 106.028137 -11.221827 -5.996406 -171.624115 13.459934 -54.978180 106.788818
20 106.028137 -11.221827 -5.996406 -170.371872 12.607442 -49.434200 106.788818
[spine02]
19 129.756927 0.001550 0.000119 0.866610 -3.966794 -20.192261 129.756927
20 129.756927 0.001550 0.000119 0.841672 -3.974184 -19.811966 129.756927
[spine03]
19 78.614067 0.081635 -4.899011 -1.269093 4.082307 -27.139374 78.766602
20 78.614067 0.081635 -4.899011 -1.100003 4.131147 -24.812843 78.766602
[pelvis]
19 169.435242 0.051022 0.000000 -0.061870 -0.179748 14.982049 169.435257
20 169.435242 0.051022 0.000000 -0.061797 -0.179773 14.935490 169.435257
[null_rope03_connect]
19 -1.257226 -2.466202 137.391083 -60.015472 -68.831100 161.218002 137.418976
20 -1.257226 -2.466202 137.391083 -58.215233 -67.884789 156.870819 137.418976
[null_rope04_connect]
19 -1.259640 -2.480268 -137.844437 -60.015472 -68.831100 161.218002 137.872513
20 -1.259640 -2.480268 -137.844437 -58.215233 -67.884789 156.870819 137.872513
[Rope3_Seg01]
19 0.000010 0.000019 -0.000076 -126.191124 18.894426 -62.007565 0.000079
20 0.000010 0.000018 -0.000072 -126.513161 17.012848 -62.109432 0.000075
[Rope3_Seg02]
19 139.999924 -0.000119 0.000060 0.681167 -3.452228 6.055199 139.999924
20 139.999924 -0.000119 0.000060 0.741690 -3.402725 6.276620 139.999924
[Rope3_Seg03]
19 139.999924 -0.000119 0.000119 0.161345 -5.229564 9.535700 139.999924
20 139.999924 -0.000119 0.000119 0.169576 -5.238281 10.101830 139.999924
[Rope3_Seg04]
19 139.999924 0.000119 0.000000 -2.139155 -7.882268 15.931512 139.999924
20 139.999924 0.000119 0.000000 -2.503778 -7.879745 17.385572 139.999924
[Rope3_Seg05]
19 139.999924 -0.000238 0.000060 -8.953089 -7.805620 27.802998 139.999924
20 139.999924 -0.000238 0.000060 -9.486420 -6.701372 28.560183 139.999924
[Rope3_Seg06]
19 139.999893 -0.000119 -0.000060 -8.557506 -11.008918 11.275383 139.999893
20 139.999893 -0.000119 -0.000060 -9.491232 -11.502079 11.047769 139.999893
[Rope3_Seg07]
19 139.999771 0.000060 -0.000119 -1.955721 -15.583420 -6.664486 139.999771
20 139.999771 0.000060 -0.000119 -2.943829 -18.544779 -6.519794 139.999771
[Rope3_Seg08]
19 139.999985 -0.000060 0.000000 1.480717 -15.341430 -10.948622 139.999985
20 139.999985 -0.000060 0.000000 1.494886 -17.599104 -10.493705 139.999985
[Rope3_Seg09]
19 90.185997 -0.000179 -0.000060 103.274582 -1.359220 -0.845924 90.185997
20 90.185997 -0.000179 -0.000060 83.943947 -1.358118 -0.846909 90.185997
[R_rear_hand01]
19 103.366196 -6.073594 -10.757982 -175.005661 24.184252 -67.364182 104.101845
20 103.366196 -6.073594 -10.757982 -172.238480 23.483227 -60.517689 104.101845
[R_rear_hand02]
19 100.509819 12.039542 -7.992327 -17.086432 35.320774 65.017616 101.543350
20 100.509819 12.039542 -7.992327 -21.154240 33.253242 57.810928 101.543350
[R_rear_hand03]
19 101.539970 5.215704 5.435467 75.861748 -66.081726 16.832085 101.819031
20 101.539970 5.215704 5.435467 78.590141 -59.929554 13.768726 101.819031
[Rope4_Seg01]
19 0.000010 0.000038 -0.000114 118.959053 -52.374371 -170.321991 0.000121
20 0.000010 0.000038 -0.000114 112.977303 -52.187634 -166.013428 0.000121
[Rope4_Seg02]
19 139.999985 0.000060 0.000119 5.626079 -3.858132 3.131969 139.999985
20 139.999985 0.000060 0.000119 5.534600 -3.994736 3.242453 139.999985
[Rope4_Seg03]
19 139.999924 0.000000 -0.000238 9.836395 -5.587903 5.561591 139.999924
20 139.999924 0.000000 -0.000238 9.736016 -5.825638 5.780318 139.999924
[Rope4_Seg04]
19 139.999985 0.000000 0.000119 18.189770 -7.994568 11.533924 139.999985
20 139.999985 0.000000 0.000119 18.115189 -8.373261 12.071579 139.999985
[Rope4_Seg05]
19 139.999802 -0.000060 -0.000119 26.137352 -5.458279 30.255970 139.999802
20 139.999802 -0.000060 -0.000119 25.185419 -4.667852 31.602787 139.999802
[Rope4_Seg06]
19 139.999924 0.000000 0.000060 11.608577 3.534039 25.132635 139.999924
20 139.999924 0.000000 0.000060 10.471265 2.167557 23.822834 139.999924
[Rope4_Seg07]
19 139.999802 0.000000 0.000000 3.707699 -4.656704 9.902185 139.999802
20 139.999802 0.000000 0.000000 4.470663 -8.641976 10.385704 139.999802
[Rope4_Seg08]
19 139.999924 0.000000 0.000119 0.904758 -2.150383 7.062991 139.999924
20 139.999924 0.000000 0.000119 2.149092 -4.884241 8.170566 139.999924
[Rope4_Seg09]
19 90.185791 0.000060 0.000060 -15.677569 2.230363 0.848041 90.185791
20 90.185791 0.000060 0.000060 -31.287014 2.228078 0.852046 90.185791
[L_rear_hand01]
19 101.696655 -8.392275 -7.654577 -21.412838 -33.100071 122.657471 102.329041
20 101.696655 -8.392275 -7.654577 -23.617750 -31.657484 126.776222 102.329041
[L_rear_hand02]
19 102.726799 -1.568258 5.773216 78.741287 59.512875 166.400970 102.900848
20 102.726799 -1.568258 5.773216 79.838760 55.818478 167.703323 102.900848
[L_rear_hand03]
19 104.552910 9.721220 -10.420293 -172.051376 -23.426100 -119.941963 105.519653
20 104.552910 9.721220 -10.420293 -170.465469 -22.855137 -123.984573 105.519653
